<svg width="23" height="16" viewBox="0 0 23 16" fill="none" xmlns="http://www.w3.org/2000/svg">
<path d="M0.733446 1.71467C1.357 2.064 9.99478 6.90667 10.3168 7.08667C10.6388 7.26667 11.0553 7.352 11.4744 7.352C11.8936 7.352 12.3101 7.26667 12.6321 7.08667C12.9541 6.90667 21.5919 2.064 22.2154 1.71467C22.8403 1.364 23.4306 0 22.2844 0H0.665724C-0.480442 0 0.109891 1.364 0.733446 1.71467ZM22.5055 4.652C21.7963 5.03733 13.0666 9.784 12.6321 10.0213C12.1977 10.2587 11.8936 10.2867 11.4744 10.2867C11.0553 10.2867 10.7512 10.2587 10.3168 10.0213C9.88233 9.784 1.20239 5.036 0.493224 4.65067C-0.00510899 4.37867 2.06504e-06 4.69733 2.06504e-06 4.94267C2.06504e-06 5.188 2.06504e-06 14.6667 2.06504e-06 14.6667C2.06504e-06 15.2267 0.723224 16 1.27778 16H21.7222C22.2768 16 23 15.2267 23 14.6667C23 14.6667 23 5.18933 23 4.944C23 4.69867 23.0051 4.38 22.5055 4.652Z" fill="#9ED35E"/>
</svg>
