<svg width="22" height="18" viewBox="0 0 22 18" fill="none" xmlns="http://www.w3.org/2000/svg">
<path d="M19.0193 11.5346C18.9132 10.7843 18.344 10.1993 17.6113 10.0249C14.7632 9.34538 14.0492 7.67588 13.9288 5.82413C13.4237 5.7285 12.5252 5.625 11 5.625C9.47484 5.625 8.57632 5.7285 8.07125 5.82413C7.95078 7.67588 7.23683 9.34538 4.38875 10.0249C3.65601 10.2004 3.08684 10.7843 2.98074 11.5346L2.43146 15.4069C2.23805 16.7704 3.22167 18 4.5899 18H17.4101C18.7772 18 19.762 16.7704 19.5686 15.4069L19.0193 11.5346ZM11 15.1785C9.45827 15.1785 8.20829 13.9185 8.20829 12.366C8.20829 10.8135 9.45827 9.5535 11 9.5535C12.5418 9.5535 13.7917 10.8135 13.7917 12.366C13.7917 13.9185 12.5406 15.1785 11 15.1785ZM21.9967 4.5C21.9701 2.8125 17.7505 0.001125 11 0C4.24839 0.001125 0.0287699 2.8125 0.00335049 4.5C-0.0220689 6.1875 0.0265596 8.3835 2.80501 8.01787C6.05538 7.58925 5.85534 6.43387 5.85534 4.78237C5.85534 3.63037 8.49896 3.3525 11 3.3525C13.5011 3.3525 16.1436 3.63037 16.1447 4.78237C16.1447 6.43387 15.9446 7.58925 19.195 8.01787C21.9724 8.3835 22.0221 6.1875 21.9967 4.5Z" fill="#9ED35E"/>
</svg>
